{"title":"GLOW.Season.2.S02.720p.NF.WEBRip.x65.HEVC","magnet":"magnet:?xt=urn:btih:50d1d90c4ce15ede85909f7891d84548983fe614&dn=GLOW.Season.2.S02.720p.NF.WEBRip.x65.HEVC&tr=udp%3A%2F%2Ftracker.leechers-paradise.org%3A6969&tr=udp%3A%2F%2Fzer0day.ch%3A1337&tr=udp%3A%2F%2Fopen.demonii.com%3A1337&tr=udp%3A%2F%2Ftracker.coppersurfer.tk%3A6969&tr=udp%3A%2F%2Fexodus.desync.com%3A6969","uploader":"Spud17","categoryP":"video","categoryS":"hd___tv_shows","size":"1586910380","seeders":"1","leechers":"12","description":"Source : 720p.WEBRip.x264-DEFLATE\n\nGeneral\nComplete name : GLOW.Season.2.S02.720p.NF.WEBRip.x65.HEVC-TVStation.InGLOW.S02E10.720p.WEBRip.x265.HEVC-TVStation.In.mkv\nFormat : Matroska\nFormat version : Version 4 / Version 2\nFile size : 249 MiB\nDuration : 46 min 27 s\nOverall bit rate : 748 kb/s\nMovie name : TVStation.In | GLOW S02E10\nEncoded date : UTC 2018-07-01 08:31:56\nWriting application : mkvmerge v24.0.0 (&apos;Beyond The Pale&apos;) 64-bit\nWriting library : libebml v1.3.6 + libmatroska v1.4.9\nCover : Yes\nAttachments : cover.jpg\n\nVideo\nID : 1\nFormat : HEVC\nFormat/Info : High Efficiency Video Coding\nFormat profile : Main@L3.1@Main\nCodec ID : V_MPEGH/ISO/HEVC\nDuration : 46 min 27 s\nBit rate : 682 kb/s\nWidth : 1 280 pixels\nHeight : 720 pixels\nDisplay aspect ratio : 16:9\nFrame rate mode : Variable\nFrame rate : 23.976 FPS\nColor space : YUV\nChroma subsampling : 4:2:0\nBit depth : 8 bits\nBits/(Pixel*Frame) : 0.031\nStream size : 227 MiB (91%)\nTitle : www.TVStation.in\nWriting library : x265 2.8+19-bcdc610cf5f0:[Windows][GCC 7.3.0][64 bit] 8bit+10bit\nDefault : Yes\nForced : No\n\nAudio\nID : 2\nFormat : AAC\nFormat/Info : Advanced Audio Codec\nFormat profile : LC\nCodec ID : A_AAC-2\nDuration : 46 min 27 s\nBit rate : 63.8 kb/s\nChannel(s) : 2 channels\nChannel positions : Front: L R\nSampling rate : 48.0 kHz\nFrame rate : 46.875 FPS (1024 SPF)\nCompression mode : Lossy\nStream size : 21.2 MiB (9%)\nTitle : Encoded by TVStation.In\nLanguage : English\nDefault : Yes\nForced : No\n\nText\nID : 3\nFormat : UTF-8\nCodec ID : S_TEXT/UTF8\nCodec ID/Info : UTF-8 Plain Text\nDuration : 45 min 46 s\nBit rate : 75 b/s\nCount of elements : 792\nStream size : 25.4 KiB (0%)\nLanguage : English\nDefault : Yes\nForced : No","last_updated":"2018-07-01T12:04:58.838Z","parsed":{"xt":"urn:btih:50d1d90c4ce15ede85909f7891d84548983fe614","dn":"GLOW.Season.2.S02.720p.NF.WEBRip.x65.HEVC","tr":["udp://exodus.desync.com:6969","udp://open.demonii.com:1337","udp://tracker.coppersurfer.tk:6969","udp://tracker.leechers-paradise.org:6969","udp://zer0day.ch:1337"],"infoHash":"50d1d90c4ce15ede85909f7891d84548983fe614","infoHashBuffer":{"type":"Buffer","data":[80,209,217,12,76,225,94,222,133,144,159,120,145,216,69,72,152,63,230,20]},"name":"GLOW.Season.2.S02.720p.NF.WEBRip.x65.HEVC","announce":["udp://exodus.desync.com:6969","udp://open.demonii.com:1337","udp://tracker.coppersurfer.tk:6969","udp://tracker.leechers-paradise.org:6969","udp://zer0day.ch:1337"],"urlList":[]}}